<svg xmlns="http://www.w3.org/2000/svg" width="26" height="30">

<path style="fill:#F50C6B; stroke:none;" d="M 3 3 M 20 13 Z M 5 20 L 12.8 20 L 6 13.2 C 8 17 8 18 5 20 Z "></path>

<path style="fill:#5BE0E5; stroke:none;" d="M 12.9 19.9 L 12.9 9 C 11.1 13 10.1 14 6.1 13 L 12.9 19.9 Z "></path>

<path style="fill:#7CD853; stroke:none;" d="M 13.1 19.9 L 13.1 9 C 15 13 16 14 20 13 L 13.1 19.9 Z "></path>

<path style="fill:#FF2728; stroke:none;" d="M 13.2 20 L 20 13.2 C 18 17 18 18 21 20 L 13.2 20 Z"></path>

<path style="fill:#FF2728; stroke:none;" d="M 20 17 C 20 15 23 15 23 17 C 23 19 20 19 20 17 Z "></path>

<path style="fill:#F50C6B; stroke:none;" d="M 6 17 C 6 15 3 15 3 17 C 3 19 6 19 6 17 Z"></path>

<path style="fill:#5BE0E5; stroke:none;" d="M 7 10 C 7 8 10 8 10 10 C 10 12 7 12 7 10 Z "></path>

<path style="fill:#7CD853; stroke:none;" d="M 19 10 C 19 8 16 8 16 10 C 16 12 19 12 19 10 Z"></path>

</svg>