<svg xmlns="http://www.w3.org/2000/svg" viewBox="672.166 230 1661 7482">
  <path d="M 2075 7702 c -6 -5 -80 -39 -165 -75 c -85 -37 -202 -87 -260 -113 c -58 -25 -139 -60 -180 -78 c -47 -20 -94 -50 -125 -79 c -47 -43 -49 -48 -36 -68 c 12 -20 11 -24 -4 -35 c -10 -7 -38 -33 -64 -56 c -145 -137 -251 -228 -265 -228 c -20 0 -21 -313 -5 -2699 c 10 -1321 10 -1738 1 -1752 c -9 -14 -12 -231 -12 -837 l 0 -818 l -36 -100 c -67 -186 -96 -269 -107 -302 c -7 -21 -36 -54 -84 -94 c -92 -76 -89 -80 74 -96 c 65 -7 172 -19 238 -27 c 66 -8 147 -15 181 -15 l 60 0 l 68 70 l 68 70 l -36 0 c -33 0 -36 2 -36 30 c 0 30 -62 201 -133 366 l -35 82 l -6 218 c -3 121 -5 497 -6 837 c 0 542 -2 617 -15 617 c -13 0 -15 47 -15 363 c 0 199 -4 799 -10 1332 c -5 534 -11 1326 -14 1761 l -4 791 l 115 139 c 64 76 143 174 176 216 c 42 55 70 81 94 89 c 19 6 45 21 58 33 l 24 22 l -32 13 c -18 8 -39 13 -47 12 c -11 -2 -10 3 5 18 c 22 23 518 240 548 241 c 20 0 68 -28 80 -47 c 21 -34 132 10 179 70 c 26 33 26 36 10 51 c -10 8 -48 31 -86 51 c -67 35 -139 47 -161 27 z" fill="#5c5857"/>
  <path id="path2" d="M 1579 7266 L 2174 7493 L 2053 7561 L 1465 7300 L 1579 7266 Z" fill="#000"/>
  <script><![CDATA[
    const path2 = document.getElementById('path2');
let segundo = 0;

function changeFill() {
  if (path2.getAttribute('fill') === '#000') {
    path2.setAttribute('fill', '#fff');
    path2.style.filter = 'drop-shadow(10px 10px 100px #fff)';
  } else {
    path2.setAttribute('fill', '#000');
    path2.style.filter = 'drop-shadow(0px 0px 0px #fff)';
  }
}

path2.setAttribute('fill', '#000');

setInterval(() => {
  segundo++;

  if (segundo === 2 || segundo === 8) {
    changeFill();
  } else if (segundo === 10) {
    segundo = 0;
  }
}, 1000);
  ]]></script>
</svg>
